<svg xmlns="http://www.w3.org/2000/svg" viewBox="0 0 20.99 21"><defs><style>.cls-1{fill:#0076ff;fill-rule:evenodd;}.cls-2{fill:none;stroke:#0076ff;}</style></defs><title>clip</title><g id="Capa_2" data-name="Capa 2"><g id="Capa_1-2" data-name="Capa 1"><path class="cls-1" d="M19.24,13.88,9.45,5a3,3,0,0,0-4,0,2.42,2.42,0,0,0,0,3.65L14,16.4l.5-.46L5.93,8.18a1.82,1.82,0,0,1,0-2.74,2.29,2.29,0,0,1,3,0l9.79,8.9a3,3,0,0,1,0,4.57,3.81,3.81,0,0,1-5,0l-11-10a4.24,4.24,0,0,1,0-6.39,5.32,5.32,0,0,1,7,0l8.54,7.76.5-.45L10.2,2a6.11,6.11,0,0,0-8,0,4.84,4.84,0,0,0,0,7.31L13.22,19.37a4.57,4.57,0,0,0,6,0,3.62,3.62,0,0,0,0-5.48"/><path class="cls-2" d="M19.24,13.88,9.45,5a3,3,0,0,0-4,0,2.42,2.42,0,0,0,0,3.65L14,16.4l.5-.46L5.93,8.18a1.82,1.82,0,0,1,0-2.74,2.29,2.29,0,0,1,3,0l9.79,8.9a3,3,0,0,1,0,4.57,3.81,3.81,0,0,1-5,0l-11-10a4.24,4.24,0,0,1,0-6.39,5.32,5.32,0,0,1,7,0l8.54,7.76.5-.45L10.2,2a6.11,6.11,0,0,0-8,0,4.84,4.84,0,0,0,0,7.31L13.22,19.37a4.57,4.57,0,0,0,6,0,3.62,3.62,0,0,0,0-5.48"/></g></g></svg>