<svg xmlns="http://www.w3.org/2000/svg" viewBox="0 0 32 32"><defs><style>.cls-1{fill:none;stroke:#fff;}.cls-2{fill:#fff;}</style></defs><title>Recurso 4</title><g id="Capa_2" data-name="Capa 2"><g id="Capa_1-2" data-name="Capa 1"><path class="cls-1" d="M16,.5h0A15.5,15.5,0,0,1,31.5,16h0A15.5,15.5,0,0,1,16,31.5h0A15.5,15.5,0,0,1,.5,16h0A15.5,15.5,0,0,1,16,.5Z"/><path class="cls-2" d="M24,17.69a2.15,2.15,0,0,0,.51-1.45A2.21,2.21,0,0,0,24,15a2,2,0,0,0-.46-2.25,4,4,0,0,0-2.94-.7,10.65,10.65,0,0,0-1.8.23h0l-.58.12a6.61,6.61,0,0,1,.46-2.13c.51-1.56.48-2.75-.1-3.55a2.33,2.33,0,0,0-1.86-.9.93.93,0,0,0-.71.32,2.5,2.5,0,0,0-.3,1.75c-.49,1.29-1.84,4.47-3,5.35a.1.1,0,0,0-.06,0A3.83,3.83,0,0,0,12,14.35a1.5,1.5,0,0,0-.73-.19H9A1.53,1.53,0,0,0,7.5,15.69v5.94A1.53,1.53,0,0,0,9,23.15h2.23a1.49,1.49,0,0,0,.88-.28L13,23a36.76,36.76,0,0,0,4.88.26q.66.06,1.23.06a8.4,8.4,0,0,0,1.7-.16,3.18,3.18,0,0,0,2.27-1.41,2.2,2.2,0,0,0,.25-1.4,2.35,2.35,0,0,0,.83-1.9A2.67,2.67,0,0,0,24,17.69ZM9,22.17a.54.54,0,0,1-.53-.54V15.68A.53.53,0,0,1,9,15.15h2.23a.54.54,0,0,1,.54.53v5.95a.54.54,0,0,1-.54.53H9Zm14-4.9a.48.48,0,0,0-.06.59,1.48,1.48,0,0,1,.16.61,1.46,1.46,0,0,1-.68,1.27.47.47,0,0,0-.17.56,1.29,1.29,0,0,1-.1.95,2.31,2.31,0,0,1-1.62.93,10.08,10.08,0,0,1-2.67.08h-.05A36.88,36.88,0,0,1,13.12,22h0L12.74,22a1.12,1.12,0,0,0,0-.32V15.68a1.63,1.63,0,0,0-.07-.45A3,3,0,0,1,13.39,14c1.64-1.3,3.25-5.69,3.32-5.88a.52.52,0,0,0,0-.25,2.27,2.27,0,0,1,.05-1.06,1.32,1.32,0,0,1,1,.49,3.11,3.11,0,0,1,0,2.66c-.61,1.87-.66,2.85-.18,3.28a.8.8,0,0,0,.8.14l.64-.13h.05c1.12-.24,3.13-.39,3.83.24A1.08,1.08,0,0,1,23,14.79a.49.49,0,0,0,.08.64,1.32,1.32,0,0,1,.41.85A1.39,1.39,0,0,1,23.06,17.27Z"/></g></g></svg>